<?xml version="1.0" encoding="utf-8"?>
<!-- Generator: Adobe Illustrator 18.1.0, SVG Export Plug-In . SVG Version: 6.00 Build 0)  -->
<svg version="1.1" baseProfile="tiny" id="Layer_1" xmlns="http://www.w3.org/2000/svg" xmlns:xlink="http://www.w3.org/1999/xlink"
	 x="0px" y="0px" width="80px" height="80px" viewBox="0 0 80 80" xml:space="preserve">
<g>
	<g>
		<path fill="#B26980" d="M40,78.5C18.8,78.5,1.5,61.2,1.5,40S18.8,1.5,40,1.5c21.2,0,38.5,17.3,38.5,38.5S61.2,78.5,40,78.5z"/>
		<g>
			<path fill="#8B254F" d="M40,3c20.4,0,37,16.6,37,37c0,20.4-16.6,37-37,37S3,60.4,3,40C3,19.6,19.6,3,40,3 M40,0
				C17.9,0,0,17.9,0,40c0,22.1,17.9,40,40,40c22.1,0,40-17.9,40-40C80,17.9,62.1,0,40,0L40,0z"/>
		</g>
	</g>
	<g>
		<path fill="#FFFFFF" d="M32.4,32.2c-1.5,0-2.8,1.3-2.8,2.8c0,1.5,1.3,2.8,2.8,2.8c1.5,0,2.8-1.3,2.8-2.8
			C35.3,33.4,34,32.2,32.4,32.2z"/>
		<path fill="#FFFFFF" d="M45.9,41.1c-1.5,0-2.8,1.3-2.8,2.8c0,1.5,1.3,2.8,2.8,2.8c1.6,0,2.8-1.3,2.8-2.8
			C48.7,42.3,47.5,41.1,45.9,41.1z"/>
		<path fill="#FFFFFF" d="M53.5,49c2-2.8,3.1-6.2,3.1-9.9c0-9.6-7.7-17.3-17.3-17.3C29.7,21.7,22,29.5,22,39
			c0,9.6,7.7,17.3,17.3,17.3c2.9,0,5.6-0.7,7.9-1.9L58,58.3L53.5,49z M27.8,35c0-2.6,2.1-4.7,4.7-4.7c2.6,0,4.7,2.1,4.7,4.7
			c0,2.6-2.1,4.7-4.7,4.7C29.9,39.7,27.8,37.6,27.8,35z M34.5,48.1c-0.2,0.3-0.5,0.4-0.8,0.4c-0.2,0-0.4-0.1-0.5-0.2
			c-0.4-0.3-0.5-0.9-0.3-1.3l10.9-16.4c0.3-0.4,0.9-0.5,1.3-0.3c0.4,0.3,0.5,0.9,0.3,1.3L34.5,48.1z M45.9,48.6
			c-2.6,0-4.7-2.1-4.7-4.7c0-2.6,2.1-4.7,4.7-4.7c2.6,0,4.7,2.1,4.7,4.7C50.6,46.5,48.5,48.6,45.9,48.6z"/>
	</g>
</g>
</svg>
