<?xml version="1.0" encoding="utf-8"?>
<!-- Generator: Adobe Illustrator 18.1.0, SVG Export Plug-In . SVG Version: 6.00 Build 0)  -->
<svg version="1.1" baseProfile="tiny" id="Layer_1" xmlns="http://www.w3.org/2000/svg" xmlns:xlink="http://www.w3.org/1999/xlink"
	 x="0px" y="0px" viewBox="0 0 80 80" xml:space="preserve">
<g>
	<path fill="#4CAEDF" d="M40,78.5C18.8,78.5,1.5,61.2,1.5,40C1.5,18.8,18.8,1.5,40,1.5c21.2,0,38.5,17.3,38.5,38.5
		C78.5,61.2,61.2,78.5,40,78.5z"/>
	<path fill="#008CD1" d="M40,3c20.4,0,37,16.6,37,37S60.4,77,40,77S3,60.4,3,40S19.6,3,40,3 M40,0C17.9,0,0,17.9,0,40s17.9,40,40,40
		s40-17.9,40-40S62.1,0,40,0L40,0z"/>
</g>
<g id="Your_Icon_5_">
	<path fill="#FFFFFF" d="M55,30.5h-1.4H33.1v-3.7l-2.3-2l-2.3,2v3.7H25v4.6h3.6v20.8h4.6V35.1h5.4V39H36v13.8h17.6V39H51v-3.9h2.6
		H55l2-2.3L55,30.5z M49.3,39h-9.1v-3.9h9.1V39L49.3,39z"/>
</g>
</svg>
