<?xml version="1.0" encoding="utf-8"?>
<!-- Generator: Adobe Illustrator 18.1.0, SVG Export Plug-In . SVG Version: 6.00 Build 0)  -->
<svg version="1.1" baseProfile="tiny" id="Layer_1" xmlns="http://www.w3.org/2000/svg" xmlns:xlink="http://www.w3.org/1999/xlink"
	 x="0px" y="0px" viewBox="0 0 80 80" xml:space="preserve">
<g>
	<path fill="#FF926F" d="M40,78.5C18.8,78.5,1.5,61.2,1.5,40S18.8,1.5,40,1.5S78.5,18.8,78.5,40S61.2,78.5,40,78.5z"/>
	<g>
		<path fill="#FF5B35" d="M40,3c20.4,0,37,16.6,37,37S60.4,77,40,77S3,60.4,3,40S19.6,3,40,3 M40,0C17.9,0,0,17.9,0,40
			s17.9,40,40,40c22.1,0,40-17.9,40-40S62.1,0,40,0L40,0z"/>
	</g>
</g>
<g>
	<path fill="#FFFFFF" d="M29.3,53c0.5,0,1-0.4,1-1h0v-3.4h8.8v3.5c0,0.5,0.4,1,1,1c0.5,0,1-0.4,1-1v-3.5h8.8v3.5c0,0.5,0.4,1,1,1
		c0.5,0,1-0.4,1-1v-4.5c0-0.3-0.1-0.5-0.3-0.7c-0.2-0.2-0.4-0.3-0.7-0.3h-9.8v-3.2c0-0.5-0.4-1-1-1c-0.5,0-1,0.4-1,1v3.2h-9.8
		c-0.3,0-0.5,0.1-0.7,0.3c-0.2,0.2-0.3,0.4-0.3,0.7V52C28.3,52.6,28.8,53,29.3,53z"/>
	<path fill="#FFFFFF" d="M50.8,54.2c-1.7,0-3.2,1.4-3.2,3.2c0,1.7,1.4,3.1,3.2,3.1c1.7,0,3.2-1.4,3.2-3.1
		C53.9,55.6,52.5,54.2,50.8,54.2z"/>
	<path fill="#FFFFFF" d="M40,54.2c-1.7,0-3.2,1.4-3.2,3.2c0,1.7,1.4,3.1,3.2,3.1c1.7,0,3.2-1.4,3.2-3.1C43.2,55.6,41.8,54.2,40,54.2
		z"/>
	<path fill="#FFFFFF" d="M29.3,54.2c-1.7,0-3.2,1.4-3.2,3.2c0,1.7,1.4,3.1,3.2,3.1c1.7,0,3.1-1.4,3.1-3.1
		C32.4,55.6,31,54.2,29.3,54.2z"/>
	<path fill="#FFFFFF" d="M40,27.7c2.6,0,4.6-2.1,4.6-4.6c0-2.6-2.1-4.6-4.6-4.6c-2.6,0-4.6,2.1-4.6,4.6C35.4,25.7,37.5,27.7,40,27.7
		z"/>
	<path fill="#FFFFFF" d="M44,27.4c-0.9,1.1-2.4,1.9-4,1.9c-1.6,0-3-0.7-4-1.9c-1.6,1.4-2.6,2.1-2.6,4.6c0,4.3,0.6,9.3,6.6,9.3
		c6,0,6.6-5,6.6-9.3C46.6,29.5,45.6,28.8,44,27.4z"/>
</g>
</svg>
