<?xml version="1.0" encoding="utf-8"?>
<!-- Generator: Adobe Illustrator 18.1.0, SVG Export Plug-In . SVG Version: 6.00 Build 0)  -->
<svg version="1.1" baseProfile="tiny" id="Layer_1" xmlns="http://www.w3.org/2000/svg" xmlns:xlink="http://www.w3.org/1999/xlink"
	 x="0px" y="0px" width="80px" height="80px" viewBox="0 0 80 80" xml:space="preserve">
<g>
	<g>
		<path fill="#FFBB68" d="M40,78.5C18.8,78.5,1.5,61.2,1.5,40S18.8,1.5,40,1.5c21.2,0,38.5,17.3,38.5,38.5S61.2,78.5,40,78.5z"/>
		<g>
			<path fill="#FF9E16" d="M40,3c20.4,0,37,16.6,37,37S60.4,77,40,77S3,60.4,3,40S19.6,3,40,3 M40,0C17.9,0,0,17.9,0,40
				s17.9,40,40,40s40-17.9,40-40S62.1,0,40,0L40,0z"/>
		</g>
	</g>
	<g>
		<path fill="#FFFFFF" d="M57,23.2H23c-1.7,0-3,1.4-3,3v22c0,1.6,1.3,3,3,3h34c1.7,0,3-1.4,3-3v-22C60,24.6,58.7,23.2,57,23.2z
			 M57.8,43.6c0,1.4-1.1,2.5-2.5,2.5H24.5c-1.4,0-2.5-1.1-2.5-2.5V27.7c0-1.4,1.1-2.5,2.5-2.5h30.9c1.4,0,2.5,1.1,2.5,2.5V43.6z"/>
		<path fill="#FFFFFF" d="M55.3,26.7H24.5c-0.5,0-1,0.5-1,1v15.8c0,0.5,0.5,1,1,1h30.9c0.5,0,1-0.5,1-1V27.7
			C56.3,27.2,55.9,26.7,55.3,26.7z M53.3,36.5l-1,0l0.1-4.2l-5.9,6.1L41,33.6l-3.9,10.8l-5.5-7.8l-4.1,5.3c-0.2,0.2-0.5,0.3-0.7,0.1
			c-0.2-0.2-0.3-0.5-0.1-0.7l4.9-6.4l5.2,7.3L40.5,32l5.9,5l5.3-5.4l-4.2,0.2l0-1l6-0.3L53.3,36.5z"/>
		<polygon fill="#FFFFFF" points="45.5,55.3 45.5,52.2 34.5,52.2 34.5,55.2 33,56.8 47,56.8 		"/>
		<rect x="32" y="57.8" fill="#FFFFFF" width="16" height="2"/>
	</g>
</g>
</svg>
