<?xml version="1.0" encoding="utf-8"?>
<!-- Generator: Adobe Illustrator 18.1.0, SVG Export Plug-In . SVG Version: 6.00 Build 0)  -->
<svg version="1.1" baseProfile="tiny" id="Layer_1" xmlns="http://www.w3.org/2000/svg" xmlns:xlink="http://www.w3.org/1999/xlink"
	 x="0px" y="0px" width="80px" height="80px" viewBox="0 0 80 80" xml:space="preserve">
<g>
	<g>
		<path fill="#63B4B0" d="M40,78.5C18.8,78.5,1.5,61.2,1.5,40C1.5,18.8,18.8,1.5,40,1.5c21.2,0,38.5,17.3,38.5,38.5
			C78.5,61.2,61.2,78.5,40,78.5z"/>
		<g>
			<path fill="#009490" d="M40,3c20.4,0,37,16.6,37,37S60.4,77,40,77S3,60.4,3,40S19.6,3,40,3 M40,0C17.9,0,0,17.9,0,40
				s17.9,40,40,40s40-17.9,40-40S62.1,0,40,0L40,0z"/>
		</g>
	</g>
	<polygon fill="#FFFFFF" points="55,54.5 55,24 47,24 47,54.5 45,54.5 45,30 37,30 37,54.5 35,54.5 35,37 27,37 27,54.5 24,54.5 
		24,22.5 21,22.5 21,57.5 59,57.5 59,54.5 	"/>
</g>
</svg>
