<?xml version="1.0" encoding="utf-8"?>
<!-- Generator: Adobe Illustrator 18.1.0, SVG Export Plug-In . SVG Version: 6.00 Build 0)  -->
<svg version="1.1" baseProfile="tiny" id="Layer_1" xmlns="http://www.w3.org/2000/svg" xmlns:xlink="http://www.w3.org/1999/xlink"
	 x="0px" y="0px" width="80px" height="80px" viewBox="0 0 80 80" xml:space="preserve">
<g>
	<g>
		<path fill="#F6838C" d="M40,78.5C18.8,78.5,1.5,61.2,1.5,40C1.5,18.8,18.8,1.5,40,1.5c21.2,0,38.5,17.3,38.5,38.5
			C78.5,61.2,61.2,78.5,40,78.5z"/>
		<g>
			<path fill="#E74360" d="M40,3c20.4,0,37,16.6,37,37S60.4,77,40,77S3,60.4,3,40S19.6,3,40,3 M40,0C17.9,0,0,17.9,0,40
				s17.9,40,40,40s40-17.9,40-40S62.1,0,40,0L40,0z"/>
		</g>
	</g>
	<g>
		<polygon fill="#FFFFFF" points="39.8,15 36.9,18.3 55.7,29.1 		"/>
		<path fill="#FFFFFF" d="M36.1,24.4c0.2-0.3,0.5-0.4,0.8-0.2c0.3,0.2,0.4,0.5,0.2,0.8l-1,1.7c1.3,0,2.1,0.1,2.8,0.5
			c0.3,0.1,0.5,0.3,0.7,0.5l0.6-1c0.2-0.3,0.5-0.4,0.8-0.2c0.3,0.2,0.4,0.5,0.2,0.8l-0.9,1.5c0.1,0.3,0.2,0.6,0.3,0.9l0,0l0,0
			l0.2,0.9c0,0.1,0.1,0.2,0.1,0.3c0.1,0,0.2,0,0.4,0h1.7l1.2-2c0.2-0.3,0.5-0.4,0.8-0.2c0.3,0.2,0.4,0.5,0.2,0.8l-0.8,1.4h10.7
			L35.5,19.8l-1.2-0.7L31,25l-1,1.7h4.7L36.1,24.4z"/>
		<path fill="#FFFFFF" d="M60.6,33.4c-0.3-0.3-0.9-0.3-1.7-0.3c-0.1,0-0.1,0-0.2,0c-0.1,0-0.2,0-0.2,0h-9.6h-1.4h-4H42h-0.5
			c-1,0-1.6-0.3-1.8-0.4c-0.2-0.1-0.4-0.7-0.6-1.4l0,0l-0.2-1c-0.1-0.3-0.2-0.5-0.3-0.7c-0.2-0.3-0.4-0.5-0.6-0.7
			c-0.4-0.2-1.1-0.2-2.2-0.2H35h-1.4h-4.7h-1.2l0,0l0,0h-0.1c-0.4,0-0.8,0-1.1,0c-0.7,0-1.1,0.1-1.4,0.2c-0.3,0.2-0.6,0.7-0.9,1.6
			l-0.2,0.8c-0.1,0.6-0.3,1.1-0.6,1.3c-0.3,0.2-0.7,0.5-1.3,0.5h-1.2c-1.7,0-2.4,0.4-2.4,2.2V57h28.6h2.8h11.2V37.5v-0.7v-1.3v-0.3
			C61.3,34.2,61,33.8,60.6,33.4z"/>
	</g>
</g>
</svg>
