<?xml version="1.0" encoding="utf-8"?>
<!-- Generator: Adobe Illustrator 18.1.0, SVG Export Plug-In . SVG Version: 6.00 Build 0)  -->
<svg version="1.1" baseProfile="tiny" id="Layer_1" xmlns="http://www.w3.org/2000/svg" xmlns:xlink="http://www.w3.org/1999/xlink"
	 x="0px" y="0px" width="40px" height="50px" viewBox="0 0 40 50" xml:space="preserve">
<polygon fill="#008CD1" points="9.4,27.9 20,50 30.6,27.9 "/>
<g>
	<path fill="#4CAEDF" d="M20,38.6c-10.2,0-18.5-8.3-18.5-18.6S9.8,1.5,20,1.5c10.2,0,18.5,8.3,18.5,18.6S30.2,38.6,20,38.6z"/>
	<path fill="#008CD1" d="M20,3c9.4,0,17,7.6,17,17.1s-7.6,17.1-17,17.1c-9.4,0-17-7.6-17-17.1S10.6,3,20,3 M20,0C9,0,0,9,0,20.1
		s9,20.1,20,20.1c11,0,20-9,20-20.1S31,0,20,0L20,0z"/>
</g>
<polygon fill="#FFFFFF" points="20,24.2 15,26.8 15.9,21.2 11.9,17.2 17.5,16.4 20,11.3 22.5,16.4 28.1,17.2 24.1,21.2 25,26.8 "/>
</svg>
