<?xml version="1.0" encoding="utf-8"?>
<!-- Generator: Adobe Illustrator 18.1.0, SVG Export Plug-In . SVG Version: 6.00 Build 0)  -->
<svg version="1.1" baseProfile="tiny" id="Layer_1" xmlns="http://www.w3.org/2000/svg" xmlns:xlink="http://www.w3.org/1999/xlink"
	 x="0px" y="0px" viewBox="0 0 40 40" xml:space="preserve">
<g>
	<g>
		<path fill="#A8A8A7" d="M20,38.5C9.8,38.5,1.5,30.2,1.5,20S9.8,1.5,20,1.5S38.5,9.8,38.5,20S30.2,38.5,20,38.5z"/>
		<path fill="#8C8C8B" d="M20,3c9.4,0,17,7.6,17,17s-7.6,17-17,17c-9.4,0-17-7.6-17-17S10.6,3,20,3 M20,0C9,0,0,9,0,20s9,20,20,20
			s20-9,20-20S31,0,20,0L20,0z"/>
	</g>
	<path fill="#FFFFFF" d="M16.2,24.5c-0.3,0.3-0.8,0.3-1,0c-0.3-0.3-0.3-0.8,0-1l6.3-6.1c0.3-0.3,0.3-0.7,0-0.9
		c-0.3-0.3-0.7-0.3-0.9,0l-6.3,6.1c-0.8,0.8-0.8,2.1,0,2.9c0.8,0.8,2.1,0.8,2.9,0l9.1-8.9c1.3-1.3,1.3-3.4,0-4.7s-3.4-1.3-4.7,0
		l-9.1,8.9c-1.8,1.8-1.8,4.7,0,6.5c1.8,1.8,4.7,1.8,6.5,0l8.9-9c0.3-0.3,0.3-0.7,0-0.9c-0.3-0.3-0.7-0.3-0.9,0l-8.9,9
		c-1.3,1.3-3.4,1.3-4.7,0c-1.3-1.3-1.3-3.4,0-4.7l9.1-8.9c0.8-0.8,2.1-0.8,2.9,0c0.8,0.8,0.8,2.1,0,2.9L16.2,24.5z"/>
</g>
</svg>
