<?xml version="1.0" encoding="utf-8"?>
<!-- Generator: Adobe Illustrator 18.1.0, SVG Export Plug-In . SVG Version: 6.00 Build 0)  -->
<svg version="1.1" baseProfile="tiny" id="Layer_1" xmlns="http://www.w3.org/2000/svg" xmlns:xlink="http://www.w3.org/1999/xlink"
	 x="0px" y="0px" width="15px" height="30px" viewBox="0 0 15 30" xml:space="preserve">
<g>
	<circle fill="#8C8C8B" cx="7.5" cy="22.5" r="6.1"/>
	<circle fill="#333333" cx="7.5" cy="7.5" r="6.1"/>
	<path fill="#8C8C8B" d="M7.5,30C3.4,30,0,26.6,0,22.5S3.4,15,7.5,15s7.5,3.4,7.5,7.5S11.6,30,7.5,30z M7.5,17.7
		c-2.6,0-4.8,2.1-4.8,4.8s2.1,4.8,4.8,4.8s4.8-2.1,4.8-4.8S10.1,17.7,7.5,17.7z"/>
</g>
<g>
	<path fill="#8C8C8B" d="M7.5,15C3.3,15,0,11.6,0,7.5S3.3,0,7.5,0C11.6,0,15,3.4,15,7.5S11.6,15,7.5,15z M7.5,2.7
		c-2.6,0-4.8,2.1-4.8,4.8s2.1,4.8,4.8,4.8s4.8-2.1,4.8-4.8S10.1,2.7,7.5,2.7z"/>
</g>
</svg>
