<?xml version="1.0" encoding="utf-8"?>
<!-- Generator: Adobe Illustrator 18.1.0, SVG Export Plug-In . SVG Version: 6.00 Build 0)  -->
<svg version="1.1" baseProfile="tiny" id="Layer_1" xmlns="http://www.w3.org/2000/svg" xmlns:xlink="http://www.w3.org/1999/xlink"
	 x="0px" y="0px" width="80px" height="80px" viewBox="0 0 80 80" xml:space="preserve">
<g>
	<g>
		<path fill="#928BB9" d="M40,78.5C18.8,78.5,1.5,61.2,1.5,40C1.5,18.8,18.8,1.5,40,1.5c21.2,0,38.5,17.3,38.5,38.5
			C78.5,61.2,61.2,78.5,40,78.5z"/>
		<g>
			<path fill="#645D9C" d="M40,3c20.4,0,37,16.6,37,37S60.4,77,40,77S3,60.4,3,40S19.6,3,40,3 M40,0C17.9,0,0,17.9,0,40
				s17.9,40,40,40s40-17.9,40-40S62.1,0,40,0L40,0z"/>
		</g>
	</g>
	<g>
		<path fill="#FFFFFF" d="M47.5,28.5l-0.6,0.2l-0.1-0.6c0-0.4-0.2-1.2-0.4-2.1c-0.2-0.9-0.4-2.1-0.5-3.2h-17c-1.1,0-1.9,0.9-1.9,1.9
			v30.5c0,1.1,0.9,1.9,1.9,1.9h22.1c1.1,0,1.9-0.9,1.9-1.9V28.1C51.2,28,48.9,28,47.5,28.5z M47.9,47H31.3c-0.4,0-0.7-0.3-0.7-0.7
			c0-0.4,0.3-0.7,0.7-0.7h16.6c0.4,0,0.7,0.3,0.7,0.7C48.6,46.7,48.3,47,47.9,47z M47.9,43.2H31.3c-0.4,0-0.7-0.3-0.7-0.7
			c0-0.4,0.3-0.7,0.7-0.7h16.6c0.4,0,0.7,0.3,0.7,0.7C48.6,42.8,48.3,43.2,47.9,43.2z M47.9,39.3H31.3c-0.4,0-0.7-0.3-0.7-0.7
			c0-0.4,0.3-0.7,0.7-0.7h16.6c0.4,0,0.7,0.3,0.7,0.7C48.6,38.9,48.3,39.3,47.9,39.3z M47.9,35.4H31.3c-0.4,0-0.7-0.3-0.7-0.7
			c0-0.4,0.3-0.7,0.7-0.7h16.6c0.4,0,0.7,0.3,0.7,0.7C48.6,35.1,48.3,35.4,47.9,35.4z"/>
		<path fill="#FFFFFF" d="M47.4,25.8c0.1,0.6,0.2,1.2,0.3,1.6c1.5-0.4,3.6-0.4,5.3-0.3l-6.1-4.3C47.1,23.9,47.3,24.9,47.4,25.8z"/>
	</g>
</g>
</svg>
