<?xml version="1.0" encoding="utf-8"?>
<!-- Generator: Adobe Illustrator 18.1.0, SVG Export Plug-In . SVG Version: 6.00 Build 0)  -->
<svg version="1.1" baseProfile="tiny" id="Layer_1" xmlns="http://www.w3.org/2000/svg" xmlns:xlink="http://www.w3.org/1999/xlink"
	 x="0px" y="0px" width="80px" height="80px" viewBox="0 0 80 80" xml:space="preserve">
<g>
	<g>
		<path fill="#A4D16C" d="M40,78.5C18.8,78.5,1.5,61.2,1.5,40C1.5,18.8,18.8,1.5,40,1.5c21.2,0,38.5,17.3,38.5,38.5
			C78.5,61.2,61.2,78.5,40,78.5z"/>
		<g>
			<path fill="#77BC1F" d="M40,3c20.4,0,37,16.6,37,37S60.4,77,40,77S3,60.4,3,40S19.6,3,40,3 M40,0C17.9,0,0,17.9,0,40
				s17.9,40,40,40s40-17.9,40-40S62.1,0,40,0L40,0z"/>
		</g>
	</g>
	<path fill="#FFFFFF" d="M26.6,23.8c-5.9,5.4-6.3,14.6-0.9,20.5c4.7,5.2,12.3,6.1,18.1,2.7l9.2,10c1.1,1.2,3,1.3,4.2,0.2
		c1.2-1.1,1.3-3,0.2-4.2l-9.2-10c3.9-5.5,3.6-13.1-1.1-18.2C41.7,18.8,32.5,18.4,26.6,23.8z M44.8,30.2c-0.1,0.1-0.2,0.1-0.3,0.2
		c-0.7,0.4-1.6,0.2-2.1-0.5c-0.2-0.4-0.5-0.8-0.9-1.2c-2.6-2.8-7-3-9.9-0.4c-0.6,0.6-1.6,0.5-2.1-0.1C29,27.5,29,26.5,29.6,26
		c4.1-3.7,10.4-3.4,14.1,0.6c0.5,0.5,0.9,1.1,1.3,1.7C45.4,28.9,45.3,29.7,44.8,30.2z"/>
</g>
</svg>
