<?xml version="1.0" encoding="utf-8"?>
<!-- Generator: Adobe Illustrator 18.1.0, SVG Export Plug-In . SVG Version: 6.00 Build 0)  -->
<svg version="1.1" baseProfile="tiny" id="Layer_1" xmlns="http://www.w3.org/2000/svg" xmlns:xlink="http://www.w3.org/1999/xlink"
	 x="0px" y="0px" width="80px" height="80px" viewBox="0 0 80 80" xml:space="preserve">
<g>
	<g>
		<path fill="#FF926F" d="M40,78.5C18.8,78.5,1.5,61.2,1.5,40C1.5,18.8,18.8,1.5,40,1.5c21.2,0,38.5,17.3,38.5,38.5
			C78.5,61.2,61.2,78.5,40,78.5z"/>
		<g>
			<path fill="#FF5B35" d="M40,3c20.4,0,37,16.6,37,37S60.4,77,40,77S3,60.4,3,40S19.6,3,40,3 M40,0C17.9,0,0,17.9,0,40
				c0,22.1,17.9,40,40,40c22.1,0,40-17.9,40-40C80,17.9,62.1,0,40,0L40,0z"/>
		</g>
	</g>
	<g>
		<path fill="#FFFFFF" d="M38.5,37h3v2.5c7.1-0.1,13.6-1.3,18.5-3.1v-4.7c0-1.6-1.3-3-3-3h-7.8v-3.8c0-2.5-2-4.5-4.5-4.5h-9.5
			c-2.5,0-4.5,2-4.5,4.5v3.8H23c-1.7,0-3,1.4-3,3v4.7c4.9,1.8,11.4,3,18.5,3.1V37z M33.8,24.9c0-0.8,0.7-1.5,1.5-1.5h9.5
			c0.8,0,1.5,0.7,1.5,1.5v3.8H33.8V24.9z"/>
		<path fill="#FFFFFF" d="M41.5,43h-3v-2.5c-7.2-0.1-13.6-1.2-18.5-3v16.1c0,1.7,1.3,3,3,3h34c1.7,0,3-1.3,3-3V37.5
			c-4.9,1.7-11.3,2.8-18.5,3V43z"/>
	</g>
</g>
</svg>
