<?xml version="1.0" encoding="utf-8"?>
<!-- Generator: Adobe Illustrator 18.1.0, SVG Export Plug-In . SVG Version: 6.00 Build 0)  -->
<svg version="1.1" baseProfile="tiny" id="Layer_1" xmlns="http://www.w3.org/2000/svg" xmlns:xlink="http://www.w3.org/1999/xlink"
	 x="0px" y="0px" width="80px" height="80px" viewBox="0 0 80 80" xml:space="preserve">
<g>
	<g>
		<path fill="#50A975" d="M40,78.5C18.8,78.5,1.5,61.2,1.5,40C1.5,18.8,18.8,1.5,40,1.5c21.2,0,38.5,17.3,38.5,38.5
			C78.5,61.2,61.2,78.5,40,78.5z"/>
		<g>
			<path fill="#00833E" d="M40,3c20.4,0,37,16.6,37,37S60.4,77,40,77S3,60.4,3,40S19.6,3,40,3 M40,0C17.9,0,0,17.9,0,40
				s17.9,40,40,40s40-17.9,40-40S62.1,0,40,0L40,0z"/>
		</g>
	</g>
	<path fill="#FFFFFF" d="M56.8,42.6c-2.2,0-4.3,0.9-5.7,2.4l-9.9-7.4v-8.1c4-0.5,7.2-3.9,7.2-8.1c0-4.5-3.7-8.2-8.2-8.2
		c-4.5,0-8.2,3.7-8.2,8.2c0,4.2,3.1,7.6,7.2,8.1v8.1l-10.1,7.6c-1.5-1.5-3.6-2.5-5.9-2.5c-4.5,0-8.2,3.7-8.2,8.2
		c0,4.5,3.7,8.2,8.2,8.2c4.5,0,8.2-3.7,8.2-8.2c0-1.5-0.4-2.9-1.1-4l9.9-7.4l9.7,7.2c-0.7,1.2-1.2,2.7-1.2,4.2
		c0,4.5,3.7,8.2,8.2,8.2c4.5,0,8.2-3.7,8.2-8.2C65,46.2,61.3,42.6,56.8,42.6z"/>
</g>
</svg>
