<?xml version="1.0" encoding="utf-8"?>
<!-- Generator: Adobe Illustrator 18.1.0, SVG Export Plug-In . SVG Version: 6.00 Build 0)  -->
<svg version="1.1" baseProfile="tiny" id="Layer_1" xmlns="http://www.w3.org/2000/svg" xmlns:xlink="http://www.w3.org/1999/xlink"
	 x="0px" y="0px" width="80px" height="80px" viewBox="0 0 80 80" xml:space="preserve">
<g>
	<g>
		<path fill="#278F9A" d="M40,78.5C18.8,78.5,1.5,61.2,1.5,40C1.5,18.8,18.8,1.5,40,1.5c21.2,0,38.5,17.3,38.5,38.5
			C78.5,61.2,61.2,78.5,40,78.5z"/>
		<g>
			<path fill="#006072" d="M40,3c20.4,0,37,16.6,37,37S60.4,77,40,77S3,60.4,3,40S19.6,3,40,3 M40,0C17.9,0,0,17.9,0,40
				s17.9,40,40,40s40-17.9,40-40S62.1,0,40,0L40,0z"/>
		</g>
	</g>
	<g>
		<path fill="#FFFFFF" d="M40,18.9c-11.6,0-21.1,9.5-21.1,21.1c0,11.6,9.5,21.1,21.1,21.1S61.1,51.6,61.1,40
			C61.1,28.4,51.6,18.9,40,18.9z M40,58.1C30,58.1,21.9,50,21.9,40c0-10,8.1-18.1,18.1-18.1S58.1,30,58.1,40
			C58.1,50,50,58.1,40,58.1z"/>
		<path fill="#FFFFFF" d="M41.5,25v13.5h9.1c0.8,0,1.5,0.7,1.5,1.5c0,0.8-0.7,1.5-1.5,1.5H40c-0.8,0-1.5-0.7-1.5-1.5V25
			c-7.6,0.8-13.6,7.2-13.6,15c0,8.3,6.8,15.1,15.1,15.1S55.1,48.3,55.1,40C55.1,32.2,49.1,25.7,41.5,25z"/>
	</g>
</g>
</svg>
